# xmcd
#
# Track frame offsets:
#	150
#	22117
#	41048
#	58351
#	85661
#	102677
#	127398
#	153078
#	179150
#	210163
#	222694
#
# Disc length: 3398 seconds
#
# Revision: 1
# Processed by: cddbd v1.5PL3 Copyright (c) Steve Scherf et al.
# Submitted via: audiograbber 1.83.01
#
DISCID=ac0d440b
DTITLE=Almost Blue's Band - Down from the roots
DYEAR=1900
DGENRE=Blues
TTITLE0=Come on baby
TTITLE1=I'm ready (to be close to you)
TTITLE2=Love against war
TTITLE3=When I lost you
TTITLE4=Bad Thoughts
TTITLE5=Just you in my arms I wish
TTITLE6=I can't stand it
TTITLE7=All along the watchtower
TTITLE8=Walking and worried
TTITLE9=She's gone
TTITLE10=Caldonia
EXTD=Track 8 written by Bob Dylan, track 11 written by Peecie Moore.\nA blues/f
EXTD=unky trio from Rome, Italia
EXTT0=
EXTT1=
EXTT2=
EXTT3=
EXTT4=
EXTT5=
EXTT6=
EXTT7=
EXTT8=
EXTT9=
EXTT10=
PLAYORDER=
